<?xml version="1.0" encoding="utf-8"?>
<!-- Generator: Adobe Illustrator 24.0.1, SVG Export Plug-In . SVG Version: 6.00 Build 0)  -->
<svg version="1.1" xmlns="http://www.w3.org/2000/svg" xmlns:xlink="http://www.w3.org/1999/xlink" x="0px" y="0px"
	 viewBox="0 0 18.4 6.9" style="enable-background:new 0 0 18.4 6.9;" xml:space="preserve">
<style type="text/css">
	.st0{fill:#FFFFFF;}
	.st1{fill:#0B3C82;}
</style>
<g id="Layer_2">
</g>
<g id="Layer_1">
	<path class="st0" d="M17.8,0H0.6C0.3,0,0,0.3,0,0.6v1.1C0,2,0.3,2.3,0.6,2.3h17.2c0.3,0,0.6-0.3,0.6-0.6V0.6
		C18.4,0.3,18.1,0,17.8,0z"/>
	<path class="st0" d="M17.8,4.6H0.6C0.3,4.6,0,4.9,0,5.2v1.1c0,0.3,0.3,0.6,0.6,0.6h17.2c0.3,0,0.6-0.3,0.6-0.6V5.2
		C18.4,4.9,18.1,4.6,17.8,4.6z"/>
	<path class="st1" d="M17.8,2.3H0.6C0.3,2.3,0,2.6,0,2.9V4c0,0.3,0.3,0.6,0.6,0.6h17.2c0.3,0,0.6-0.3,0.6-0.6V2.9
		C18.4,2.6,18.1,2.3,17.8,2.3z"/>
</g>
</svg>
