<svg xmlns="http://www.w3.org/2000/svg" width="19.109" height="16.986" viewBox="0 0 19.109 16.986"><defs><style>.a{fill:#fff;}</style></defs><path class="a" d="M11.147,14.863H.531A.531.531,0,0,0,0,15.394v1.062a.531.531,0,0,0,.531.531H11.147a.531.531,0,0,0,.531-.531V15.394A.531.531,0,0,0,11.147,14.863Zm6.9-10.616V2.654a.531.531,0,1,0-1.062,0V4.247H15.924V2.654a.531.531,0,0,0-1.062,0V4.247h-.531a.531.531,0,0,0-.531.531V5.839a2.645,2.645,0,0,0,1.858,2.519v3.931a.966.966,0,0,1-.772.968.93.93,0,0,1-1.086-.916v-.929a2.92,2.92,0,0,0-2.919-2.919h-.265V2.123A2.123,2.123,0,0,0,8.493,0H3.185A2.123,2.123,0,0,0,1.062,2.123V13.8h9.555V10.086h.265a1.327,1.327,0,0,1,1.327,1.327v.816a2.6,2.6,0,0,0,2.27,2.621,2.524,2.524,0,0,0,2.773-2.509V8.358a2.645,2.645,0,0,0,1.858-2.519V4.777a.531.531,0,0,0-.531-.531h-.531ZM8.629,5.831,5.52,10.442a.411.411,0,0,1-.345.174.363.363,0,0,1-.387-.429l.764-2.756H3.583a.368.368,0,0,1-.394-.394l.531-3.55a.384.384,0,0,1,.394-.3H6.37a.362.362,0,0,1,.385.438L6.37,5.308H8.284A.351.351,0,0,1,8.629,5.831Z"/></svg>