<svg xmlns="http://www.w3.org/2000/svg" width="33.696" height="29.952" viewBox="0 0 33.696 29.952"><defs><style>.a{fill:#373a3c;}</style></defs><path class="a" d="M19.656,26.208H.936A.936.936,0,0,0,0,27.144v1.872a.936.936,0,0,0,.936.936h18.72a.936.936,0,0,0,.936-.936V27.144A.936.936,0,0,0,19.656,26.208ZM31.824,7.488V4.68a.936.936,0,1,0-1.872,0V7.488H28.08V4.68a.936.936,0,1,0-1.872,0V7.488h-.936a.936.936,0,0,0-.936.936V10.3a4.664,4.664,0,0,0,3.276,4.442V21.67a1.7,1.7,0,0,1-1.361,1.708,1.641,1.641,0,0,1-1.915-1.615V20.124a5.148,5.148,0,0,0-5.148-5.148H18.72V3.744A3.744,3.744,0,0,0,14.976,0H5.616A3.744,3.744,0,0,0,1.872,3.744V24.336H18.72V17.784h.468a2.34,2.34,0,0,1,2.34,2.34v1.44a4.58,4.58,0,0,0,4,4.622,4.45,4.45,0,0,0,4.89-4.424V14.738A4.664,4.664,0,0,0,33.7,10.3V8.424a.936.936,0,0,0-.936-.936h-.936ZM15.215,10.282,9.734,18.414a.725.725,0,0,1-.608.307.64.64,0,0,1-.683-.756L9.79,13.1H6.318a.649.649,0,0,1-.7-.7l.936-6.26a.677.677,0,0,1,.7-.533h3.978a.638.638,0,0,1,.679.773L11.232,9.36h3.375A.619.619,0,0,1,15.215,10.282Z"/></svg>