<svg xmlns="http://www.w3.org/2000/svg" width="18.116" height="16.822" viewBox="0 0 18.116 16.822"><defs><style>.a{fill:#0b3c82;}</style></defs><path class="a" d="M16.295,12.286l-3.525,5.393a1.92,1.92,0,0,1,.437,1.225,1.941,1.941,0,0,1-3.881,0,2.126,2.126,0,0,1,.032-.36L7.029,17.19a1.929,1.929,0,0,1-1.346.542,1.951,1.951,0,0,1-.954-.251L2.25,19.8v2.312A1.731,1.731,0,0,0,3.976,23.84H18.64a1.731,1.731,0,0,0,1.726-1.726v-8.6L18,11.946a1.939,1.939,0,0,1-1.7.34Z" transform="translate(-2.25 -7.018)"/><path class="a" d="M5.686,10.207a1.941,1.941,0,0,1,1.941,1.941c0,.085-.008.17-.016.251l2.43,1.358a1.923,1.923,0,0,1,1.229-.437,2.031,2.031,0,0,1,.42.044l3.533-5.474a1.92,1.92,0,0,1-.36-1.124,1.941,1.941,0,0,1,3.881,0,2.109,2.109,0,0,1-.053.457l1.67,1.116V5.1a1.731,1.731,0,0,0-1.726-1.726H3.976A1.731,1.731,0,0,0,2.25,5.1v9.27l1.617-1.548a1.94,1.94,0,0,1,1.819-2.616Z" transform="translate(-2.25 -3.375)"/></svg>