<svg xmlns="http://www.w3.org/2000/svg" width="18.547" height="15.898" viewBox="0 0 18.547 15.898"><defs><style>.a{fill:#fff;}</style></defs><g transform="translate(-2.25 -4.5)"><path class="a" d="M20.135,4.5H8.874a.682.682,0,0,0-.662.683v1.3H3.989A1.744,1.744,0,0,0,2.25,8.226v8.591A3.589,3.589,0,0,0,5.81,20.4H17.39A3.415,3.415,0,0,0,20.8,17V5.162A.664.664,0,0,0,20.135,4.5ZM8.212,7.812v7.949H6.473V8.607a2.022,2.022,0,0,0-.137-.795Zm-.7,10.574a2.445,2.445,0,0,1-1.677.687,2.262,2.262,0,0,1-2.256-2.256V8.607a.787.787,0,1,1,1.573,0v7.816a.664.664,0,0,0,.662.662H8.191A2.178,2.178,0,0,1,7.508,18.386ZM19.473,17a2.092,2.092,0,0,1-2.082,2.07H8.679a3.461,3.461,0,0,0,.857-2.256V5.866h9.936Z"/><path class="a" d="M17.438,9.563h6.624v2.318H17.438Z" transform="translate(-6.245 -2.082)"/><path class="a" d="M17.438,15.75h6.624v1.325H17.438Z" transform="translate(-6.245 -4.626)"/><path class="a" d="M17.438,20.25h6.624v1.325H17.438Z" transform="translate(-6.245 -6.476)"/><path class="a" d="M23.83,24.75H17.206s0,1.325-.331,1.325h6.156C23.83,26.075,23.83,25.205,23.83,24.75Z" transform="translate(-6.014 -8.327)"/></g></svg>