<?xml version="1.0" encoding="utf-8"?>
<!-- Generator: Adobe Illustrator 24.0.1, SVG Export Plug-In . SVG Version: 6.00 Build 0)  -->
<svg version="1.1" id="Layer_1" xmlns="http://www.w3.org/2000/svg" xmlns:xlink="http://www.w3.org/1999/xlink" x="0px" y="0px"
	 viewBox="0 0 18.1 16.8" style="enable-background:new 0 0 18.1 16.8;" xml:space="preserve">
<style type="text/css">
	.st0{fill:#0B3C82;}
	.st1{fill:#FFFFFF;}
	.st2{fill:#FCFCFC;}
</style>
<g id="Layer_2">
</g>
<path class="st0" d="M16.1,16.8H2c-1.1,0-2-0.9-2-2V2c0-1.1,0.9-2,2-2h14.1c1.1,0,2,0.9,2,2v12.8C18.1,15.9,17.2,16.8,16.1,16.8z"/>
<path class="st1" d="M14,5.3l-3.5,5.4c0.3,0.3,0.4,0.8,0.4,1.2c0,1.1-0.9,1.9-2,1.9c-1,0-1.9-0.9-1.9-1.9c0-0.1,0-0.2,0-0.4
	l-2.3-1.4c-0.4,0.3-0.8,0.5-1.3,0.5c-0.3,0-0.7-0.1-1-0.3L0,12.8v2.3c0,1,0.8,1.7,1.7,1.7h14.7c1,0,1.7-0.8,1.7-1.7V6.5l-2.4-1.6
	C15.3,5.3,14.6,5.4,14,5.3L14,5.3z"/>
<path class="st2" d="M3.4,6.8c1.1,0,1.9,0.9,1.9,1.9l0,0c0,0.1,0,0.2,0,0.3l2.4,1.4C8.1,10.1,8.6,9.9,9,9.9c0.1,0,0.3,0,0.4,0
	L13,4.5c-0.2-0.3-0.4-0.7-0.4-1.1c0-1.1,0.9-1.9,2-1.9c1,0,1.9,0.9,1.9,1.9c0,0.2,0,0.3-0.1,0.5L18.1,5V1.7c0-1-0.8-1.7-1.7-1.7H1.7
	C0.8,0,0,0.8,0,1.7V11l1.6-1.5C1.2,8.4,1.8,7.3,2.8,7C3,6.9,3.2,6.8,3.4,6.8L3.4,6.8z"/>
</svg>
